<svg xmlns="http://www.w3.org/2000/svg" class="basket-modal-item__icon" width="23px" height="23px" viewBox="0 0 24 24" fill="#FF0000">
<path d="M7 11C6.44772 11 6 11.4477 6 12C6 12.5523 6.44772 13 7 13H17C17.5523 13 18 12.5523 18 12C18 11.4477 17.5523 11 17 11H7Z" fill="#FF0000"/>
<path fill-rule="evenodd" clip-rule="evenodd" d="M4.5 2C3.11929 2 2 3.11929 2 4.5V19.5C2 20.8807 3.11929 22 4.5 22H19.5C20.8807 22 22 20.8807 22 19.5V4.5C22 3.11929 20.8807 2 19.5 2H4.5ZM4 4.5C4 4.22386 4.22386 4 4.5 4H19.5C19.7761 4 20 4.22386 20 4.5V19.5C20 19.7761 19.7761 20 19.5 20H4.5C4.22386 20 4 19.7761 4 19.5V4.5Z" fill="#FF0000"/>
</svg>


